<svg width="135" height="193" viewBox="0 0 135 193" fill="none" xmlns="http://www.w3.org/2000/svg">
<path d="M123.538 136.534C123.615 137.525 123.656 138.526 123.656 139.537C123.656 160.299 106.953 177.13 86.3485 177.13C69.0407 177.13 54.4873 165.254 50.2728 149.147C51.7915 168.505 67.8609 183.737 87.4621 183.737C108.067 183.737 124.77 166.906 124.77 146.144C124.77 142.822 124.34 139.601 123.538 136.534Z" fill="white"/>
<path d="M123.538 136.534C123.615 137.525 123.656 138.526 123.656 139.537C123.656 160.299 106.953 177.13 86.3485 177.13C69.0407 177.13 54.4873 165.254 50.2728 149.147C51.7915 168.505 67.8609 183.737 87.4621 183.737C108.067 183.737 124.77 166.906 124.77 146.144C124.77 142.822 124.34 139.601 123.538 136.534Z" stroke="#1B1464" stroke-width="2" stroke-miterlimit="10" stroke-linecap="round" stroke-linejoin="round"/>
<path d="M58.3101 102.773C52.012 99.9662 41.016 120.732 38.4512 136.173C36.3486 148.833 37.0291 160.462 40.2643 167.844L58.3101 102.773Z" fill="white"/>
<path d="M58.3101 102.773C52.012 99.9662 41.016 120.732 38.4512 136.173C36.3486 148.833 37.0291 160.462 40.2643 167.844L58.3101 102.773Z" stroke="#1B1464" stroke-width="2" stroke-miterlimit="10" stroke-linecap="round" stroke-linejoin="round"/>
<path d="M77.755 102.773C84.0531 99.9662 95.0491 120.732 97.6135 136.173C99.7161 148.833 99.0357 160.462 95.8005 167.844L77.755 102.773Z" fill="white"/>
<path d="M94.8914 131.207C93.8174 124.74 91.2642 117.341 88.1968 111.129C92.4131 118.019 96.2337 127.866 97.6136 136.173C99.7161 148.834 99.0357 160.462 95.8005 167.845L93.8627 160.857C96.4097 153.464 96.811 142.767 94.8914 131.207Z" fill="#D1D1D1"/>
<path d="M77.755 102.773C84.0531 99.9662 95.0491 120.732 97.6135 136.173C99.7161 148.833 99.0357 160.462 95.8005 167.844L77.755 102.773Z" stroke="#1B1464" stroke-width="2" stroke-miterlimit="10" stroke-linecap="round" stroke-linejoin="round"/>
<path d="M96.9038 170.615C96.5062 164.441 80.4613 97.5661 76.1002 94.2251H68.2511H60.1997C55.8386 97.5661 39.7936 164.441 39.396 170.615C38.902 178.286 36.3769 190 50.9737 190H68.2514H85.3269C99.923 190 97.3979 178.286 96.9038 170.615Z" fill="white"/>
<path d="M41.1768 161.157C41.1768 161.157 40.0375 170.955 45.5078 174.569C49.811 177.412 53.5915 178.566 60.6993 179.881C64.5058 180.585 68.6757 180.88 68.6757 180.88L69.1397 189.681L38.9205 189.913C38.9205 189.913 38.4026 177.54 39.1387 173.827C39.8749 170.114 40.2513 163.955 41.1768 161.157Z" fill="#D1D1D1"/>
<path d="M95.4442 161.157C95.4442 161.157 96.5835 170.955 91.1131 174.569C86.8099 177.412 83.0294 178.566 75.9217 179.881C72.1152 180.585 67.9452 180.88 67.9452 180.88L67.4812 189.681L97.7005 189.913C97.7005 189.913 98.2183 177.54 97.4822 173.827C96.746 170.114 96.3696 163.955 95.4442 161.157Z" fill="#D1D1D1"/>
<path d="M81.4432 107.703C80.504 107.449 79.612 107.311 78.8309 107.311C74.3206 107.311 70.6852 109.713 70.6852 115.301C70.6852 120.889 78.8309 127.548 83.3413 127.548C84.5607 127.548 85.7163 127.215 86.7558 126.621C84.9475 119.754 83.1107 113.148 81.4432 107.703ZM47.0985 155.798C52.1167 155.798 56.1849 150.868 56.1849 144.785C56.1849 138.943 52.4311 134.166 47.6877 133.798C45.8371 141.075 44.0939 148.294 42.6873 154.413C43.9936 155.294 45.4971 155.798 47.0985 155.798Z" fill="#1B1464" fill-opacity="0.43"/>
<path d="M59.0748 95.8255C59.0748 95.8255 61.7149 97.9429 67.7784 97.9429C72.6663 97.9429 76.9903 95.8255 76.9903 95.8255L76.631 94.3707L59.3673 94.3562L59.0748 95.8255Z" fill="#D1D1D1"/>
<path d="M96.9038 170.615C96.5062 164.441 80.4613 97.5661 76.1002 94.2251H68.2511H60.1997C55.8386 97.5661 39.7936 164.441 39.396 170.615C38.902 178.286 36.3769 190 50.9737 190H68.2514H85.3269C99.923 190 97.3979 178.286 96.9038 170.615Z" stroke="#1B1464" stroke-width="2" stroke-miterlimit="10" stroke-linecap="round" stroke-linejoin="round"/>
<path d="M96.037 67.497C95.3209 60.246 91.7847 41.9674 87.7729 29.1439C81.3697 8.67553 73.8918 3.34034 69.5541 2.80467C69.0923 2.7475 68.1501 2.71558 68.1501 2.71558C68.1501 2.71558 67.208 2.72856 66.7462 2.78536C62.4084 3.32103 54.9306 8.6269 48.5274 29.0957C44.5159 41.9191 40.9793 60.2475 40.2632 67.4985C38.6521 83.8163 46.5057 92.8474 56.6568 94.1374C59.5601 94.5064 65.2769 94.5086 68.1501 94.5086C71.0234 94.5086 76.7402 94.5064 79.6435 94.1374C89.7946 92.8474 97.6481 83.8148 96.037 67.497Z" fill="white"/>
<path d="M68.1501 82.4455C72.0297 82.4455 75.1747 79.9767 75.1747 76.9313C75.1747 73.886 72.0297 71.4172 68.1501 71.4172C64.2705 71.4172 61.1254 73.886 61.1254 76.9313C61.1254 79.9767 64.2705 82.4455 68.1501 82.4455Z" fill="#D1D1D1"/>
<path d="M61.715 4.85919C61.715 4.85919 58.374 17.4417 51.3828 21.0808C53.1538 17.0664 55.5775 12.2836 55.5775 12.2836C55.5775 12.2836 59.7352 5.41603 61.715 4.85919ZM69.554 2.80486C69.554 2.80486 78.6055 18.4084 86.1628 24.3672C86.1628 24.3672 84.4523 13.3041 82.7818 9.96311C81.1113 6.62212 72.9381 1.77175 69.554 2.80486Z" fill="#D1D1D1"/>
<path d="M50.3223 62.717C64.9209 56.4285 73.6287 44.0721 69.7717 35.1178C67.0688 28.8427 58.9097 25.9097 49.2461 26.8771C49.0052 27.5969 48.7654 28.3349 48.527 29.0962C44.8126 40.9701 41.5072 57.5574 40.4693 65.7065C43.6837 65.13 47.0117 64.1429 50.3223 62.717Z" fill="#1B1464" fill-opacity="0.43"/>
<path d="M89.051 79.686C84.9115 85.7191 75.811 89.8363 66.1043 89.8363C57.1367 89.8363 51.7329 84.5498 48.5663 78.0129" stroke="#1B1464" stroke-width="2" stroke-miterlimit="10" stroke-linecap="round" stroke-linejoin="round"/>
<path d="M68.1502 80.5055C73.0007 80.5055 76.9329 78.471 76.9329 75.9614C76.9329 73.4517 73.0007 71.4172 68.1502 71.4172C63.2996 71.4172 59.3674 73.4517 59.3674 75.9614C59.3674 78.471 63.2996 80.5055 68.1502 80.5055Z" fill="#1B1464"/>
<path d="M116.426 187.65C110.782 182.338 99.9555 179.722 89.3527 180.519C80.2778 181.2 73.5736 184.268 70.9312 188.344C70.4765 189.045 71.0363 189.995 71.9031 189.995L114.761 190C116.481 190 117.471 188.633 116.426 187.65Z" fill="white"/>
<path d="M116.126 187.563C116.001 187.611 115.865 187.639 115.72 187.639L72.8628 187.645C72.3509 187.645 71.9058 187.522 71.5576 187.326C71.4365 187.433 71.3141 187.54 71.1971 187.65C70.1525 188.633 71.1425 190 72.8624 190L115.72 189.994C116.587 189.994 117.147 189.044 116.692 188.343C116.52 188.079 116.331 187.819 116.126 187.563Z" fill="#D1D1D1"/>
<path d="M116.426 187.65C110.782 182.338 99.9555 179.722 89.3527 180.519C80.2778 181.2 73.5736 184.268 70.9312 188.344C70.4765 189.045 71.0363 189.995 71.9031 189.995L114.761 190C116.481 190 117.471 188.633 116.426 187.65Z" stroke="#00354C" stroke-width="2" stroke-miterlimit="10" stroke-linecap="round" stroke-linejoin="round"/>
<path d="M93.2339 185.83V189.913" stroke="#00354C" stroke-width="6" stroke-miterlimit="10" stroke-linecap="round" stroke-linejoin="round"/>
<path d="M21.0822 187.65C26.7262 182.338 37.5529 179.722 48.1557 180.519C57.2306 181.2 63.9349 184.268 66.5772 188.344C67.032 189.045 66.4722 189.995 65.6054 189.995L22.7479 190C21.0276 190 20.0376 188.633 21.0822 187.65Z" fill="white"/>
<path d="M66.0108 187.563C65.886 187.611 65.7505 187.639 65.6054 187.639L22.7479 187.645C22.236 187.645 21.7909 187.522 21.4427 187.326C21.3216 187.433 21.1991 187.54 21.0822 187.65C20.0376 188.633 21.0276 190 22.7475 190L65.605 189.994C66.4718 189.994 67.0316 189.044 66.5769 188.343C66.4054 188.079 66.216 187.819 66.0108 187.563Z" fill="#D1D1D1"/>
<path d="M21.0822 187.65C26.7262 182.338 37.5529 179.722 48.1557 180.518C57.2306 181.2 63.9349 184.267 66.5772 188.343C67.032 189.045 66.4722 189.995 65.6054 189.995L22.7479 190C21.0276 190 20.0376 188.633 21.0822 187.65ZM96.037 67.497C95.3209 60.246 91.7846 41.9674 87.7729 29.1439C81.3697 8.67553 73.8918 3.34034 69.5541 2.80467C69.0923 2.7475 68.1501 2.71558 68.1501 2.71558C68.1501 2.71558 67.2079 2.72856 66.7461 2.78536C62.4084 3.32103 54.9305 8.6269 48.5273 29.0957C44.5159 41.9191 40.9793 60.2475 40.2632 67.4985C38.6521 83.8163 46.5057 92.8474 56.6567 94.1374C59.56 94.5064 65.2768 94.5086 68.1501 94.5086C71.0234 94.5086 76.7402 94.5064 79.6435 94.1374C89.7945 92.8474 97.6481 83.8148 96.037 67.497Z" stroke="#1B1464" stroke-width="2" stroke-miterlimit="10" stroke-linecap="round" stroke-linejoin="round"/>
<path d="M68.8784 2.62414C68.8784 2.62414 81.8225 -0.129946 85.403 1.53461C89.0755 3.24186 95.7307 16.2569 92.9826 21.3578C88.7733 29.1702 76.4521 0.971838 68.8784 2.62414Z" fill="white"/>
<path d="M68.8784 2.62414C68.8784 2.62414 81.8225 -0.129946 85.403 1.53461C89.0755 3.24186 95.7307 16.2569 92.9826 21.3578C88.7733 29.1702 76.4521 0.971838 68.8784 2.62414Z" stroke="#1B1464" stroke-width="2" stroke-miterlimit="10" stroke-linecap="round" stroke-linejoin="round"/>
<path d="M44.5501 4.9719L62.489 4.45776C62.489 4.45776 45.859 22.3336 38.1859 26.198C30.5127 30.0616 38.3536 4.9229 44.5501 4.9719Z" fill="white"/>
<path d="M44.5501 4.9719L62.489 4.45776C62.489 4.45776 45.859 22.3336 38.1859 26.198C30.5127 30.0616 38.3536 4.9229 44.5501 4.9719Z" stroke="#1B1464" stroke-width="2" stroke-miterlimit="10" stroke-linecap="round" stroke-linejoin="round"/>
<path d="M61.0364 45.1367C62.0691 45.1367 62.9062 44.0564 62.9062 42.7237C62.9062 41.3911 62.0691 40.3108 61.0364 40.3108C60.0037 40.3108 59.1666 41.3911 59.1666 42.7237C59.1666 44.0564 60.0037 45.1367 61.0364 45.1367Z" fill="#1B1464"/>
<path d="M76.7205 45.1367C77.7532 45.1367 78.5903 44.0564 78.5903 42.7237C78.5903 41.3911 77.7532 40.3108 76.7205 40.3108C75.6878 40.3108 74.8506 41.3911 74.8506 42.7237C74.8506 44.0564 75.6878 45.1367 76.7205 45.1367Z" fill="#1B1464"/>
<path d="M3 190H131.69" stroke="#00354C" stroke-width="6" stroke-miterlimit="10" stroke-linecap="round" stroke-linejoin="round"/>
<path d="M105.401 27.6793C105.401 29.7537 104.882 30.991 102.808 30.991C100.734 30.991 99.0517 30.1985 99.0517 28.1241C99.0517 26.0497 100.733 24.3677 102.808 24.3677C104.883 24.3677 105.401 25.605 105.401 27.6793Z" fill="#1B1464" fill-opacity="0.43"/>
</svg>
