<svg width="135" height="16" viewBox="0 0 135 16" fill="none" xmlns="http://www.w3.org/2000/svg">
<path d="M2.18 15V3.08L10.08 15H11.5V0.68H10.08V12.6L2.2 0.68H0.74V15H2.18ZM14.0178 10.16C14.0178 13.1 16.0978 15.24 18.9378 15.24C21.7778 15.24 23.8578 13.1 23.8578 10.16C23.8578 7.2 21.7778 5.06 18.9378 5.06C16.0978 5.06 14.0178 7.2 14.0178 10.16ZM15.4178 10.14C15.4178 7.9 16.8578 6.3 18.9378 6.3C20.9978 6.3 22.4578 7.9 22.4578 10.14C22.4578 12.42 20.9978 14 18.9378 14C16.8578 14 15.4178 12.42 15.4178 10.14ZM32.9919 15V9.94C32.9919 7.76 34.1119 6.32 36.0919 6.32C37.6919 6.32 38.7119 7.12 38.7119 9.38V15H40.0919V9.08C40.0919 6.64 38.9919 5.06 36.3319 5.06C34.9319 5.06 33.6519 5.76 33.0119 7L32.8119 5.32H31.6119V15H32.9919ZM42.1623 10.16C42.1623 13.1 44.2423 15.24 47.0823 15.24C49.9223 15.24 52.0023 13.1 52.0023 10.16C52.0023 7.2 49.9223 5.06 47.0823 5.06C44.2423 5.06 42.1623 7.2 42.1623 10.16ZM43.5623 10.14C43.5623 7.9 45.0023 6.3 47.0823 6.3C49.1423 6.3 50.6023 7.9 50.6023 10.14C50.6023 12.42 49.1423 14 47.0823 14C45.0023 14 43.5623 12.42 43.5623 10.14ZM56.3319 15V6.48H58.2719V5.32H56.3319V2.26H54.9719V5.32H53.0319V6.48H54.9719V15H56.3319ZM60.7489 2.66C61.3089 2.66 61.7889 2.2 61.7889 1.64C61.7889 1.08 61.3089 0.599999 60.7489 0.599999C60.1889 0.599999 59.7289 1.08 59.7289 1.64C59.7289 2.2 60.1889 2.66 60.7489 2.66ZM60.0689 15H61.4489V5.32H60.0689V15ZM70.7067 15H72.0867V5.32H66.1067V3.44C66.1067 2.3 66.4267 1.7 67.5867 1.7H68.4267V0.5C68.1067 0.439999 67.6867 0.419999 67.3467 0.419999C65.9067 0.419999 64.7267 1.26 64.7267 3.44V5.32H63.2467V6.48H64.7267V15H66.1067V6.48H70.7067V15ZM71.3867 2.56C71.9267 2.56 72.3467 2.16 72.3467 1.6C72.3467 1.04 71.9267 0.619999 71.3867 0.619999C70.8267 0.619999 70.4267 1.04 70.4267 1.6C70.4267 2.16 70.8267 2.56 71.3867 2.56ZM74.2327 10.18C74.2327 13.22 76.0927 15.24 78.8327 15.24C81.0327 15.24 82.7527 13.94 83.2127 11.96H81.8127C81.4327 13.2 80.2727 14 78.8327 14C76.8727 14 75.5927 12.46 75.5927 10.16C75.5927 7.78 76.9727 6.28 78.9327 6.28C80.2727 6.28 81.4327 7.02 81.7927 8.36H83.1727C82.7927 6.36 81.1527 5.06 78.9127 5.06C76.0927 5.06 74.2327 7.14 74.2327 10.18ZM88.0833 15.24C89.7233 15.24 91.0433 14.52 91.6433 13.3L91.8233 15H92.9833V8.74C92.9833 6.18 91.3433 5.06 89.1033 5.06C86.7233 5.06 85.1233 6.32 85.1233 8.28H86.3833C86.3833 6.98 87.3833 6.22 89.0633 6.22C90.4833 6.22 91.6233 6.82 91.6233 8.72V9.04L88.4233 9.3C86.1633 9.48 84.8033 10.6 84.8033 12.38C84.8033 14.08 86.0233 15.24 88.0833 15.24ZM88.4033 14.12C87.0833 14.12 86.2033 13.52 86.2033 12.34C86.2033 11.26 86.9433 10.46 88.7633 10.3L91.6233 10.08V10.6C91.6233 12.7 90.4433 14.12 88.4033 14.12ZM97.7967 15V6.48H99.7367V5.32H97.7967V2.26H96.4367V5.32H94.4967V6.48H96.4367V15H97.7967ZM102.214 2.66C102.774 2.66 103.254 2.2 103.254 1.64C103.254 1.08 102.774 0.599999 102.214 0.599999C101.654 0.599999 101.194 1.08 101.194 1.64C101.194 2.2 101.654 2.66 102.214 2.66ZM101.534 15H102.914V5.32H101.534V15ZM105.112 10.16C105.112 13.1 107.192 15.24 110.032 15.24C112.872 15.24 114.952 13.1 114.952 10.16C114.952 7.2 112.872 5.06 110.032 5.06C107.192 5.06 105.112 7.2 105.112 10.16ZM106.512 10.14C106.512 7.9 107.952 6.3 110.032 6.3C112.092 6.3 113.552 7.9 113.552 10.14C113.552 12.42 112.092 14 110.032 14C107.952 14 106.512 12.42 106.512 10.14ZM118.539 15V9.94C118.539 7.76 119.659 6.32 121.639 6.32C123.239 6.32 124.259 7.12 124.259 9.38V15H125.639V9.08C125.639 6.64 124.539 5.06 121.879 5.06C120.479 5.06 119.199 5.76 118.559 7L118.359 5.32H117.159V15H118.539ZM127.452 12.28C127.452 14.08 128.812 15.24 130.992 15.24C133.192 15.24 134.672 14.1 134.672 12.36C134.672 10.96 133.912 10.18 132.232 9.76L130.572 9.34C129.512 9.08 128.992 8.56 128.992 7.82C128.992 6.78 129.752 6.2 131.112 6.2C132.412 6.2 133.192 6.86 133.232 7.98H134.572C134.512 6.18 133.192 5.06 131.152 5.06C129.072 5.06 127.652 6.14 127.652 7.84C127.652 9.16 128.472 10.04 130.152 10.46L131.812 10.88C132.952 11.16 133.352 11.62 133.352 12.42C133.352 13.46 132.472 14.1 130.972 14.1C129.612 14.1 128.772 13.4 128.772 12.28H127.452Z" fill="#0C073E"/>
</svg>
